<!-- Generated by IcoMoon.io -->
<svg version="1.1" xmlns="http://www.w3.org/2000/svg" width="32" height="32" viewBox="0 0 32 32">
<title>attachment</title>
<path d="M19.772 10.343l-7.543 7.543c-0.521 0.521-0.521 1.365 0 1.886s1.365 0.521 1.886 0l7.542-7.543c1.562-1.562 1.562-4.095 0-5.657s-4.095-1.562-5.657 0l-7.542 7.542c-2.604 2.603-2.604 6.825 0 9.428s6.825 2.603 9.428 0l7.543-7.543 1.886 1.886-7.542 7.542c-3.645 3.645-9.555 3.645-13.199 0s-3.645-9.554 0-13.199l7.542-7.542c2.603-2.603 6.825-2.603 9.428 0s2.603 6.825 0 9.428l-7.543 7.543c-1.562 1.562-4.095 1.562-5.657 0s-1.562-4.095 0-5.657l7.542-7.542 1.886 1.886z"></path>
</svg>
