<!-- Generated by IcoMoon.io -->
<svg version="1.1" xmlns="http://www.w3.org/2000/svg" width="32" height="32" viewBox="0 0 32 32">
<title>lock</title>
<path d="M25.333 13.333h1.333c0.736 0 1.333 0.597 1.333 1.333v13.333c0 0.736-0.597 1.333-1.333 1.333h-21.333c-0.736 0-1.333-0.597-1.333-1.333v-13.333c0-0.736 0.597-1.333 1.333-1.333h1.333v-1.333c0-5.155 4.179-9.333 9.333-9.333s9.333 4.179 9.333 9.333v1.333zM6.667 16v10.667h18.667v-10.667h-18.667zM14.667 18.667h2.667v5.333h-2.667v-5.333zM22.667 13.333v-1.333c0-3.682-2.985-6.667-6.667-6.667s-6.667 2.985-6.667 6.667v1.333h13.333z"></path>
</svg>
