<!-- Generated by IcoMoon.io -->
<svg version="1.1" xmlns="http://www.w3.org/2000/svg" width="32" height="32" viewBox="0 0 32 32">
<title>remove</title>
<path d="M22.667 8h6.667v2.667h-2.667v17.333c0 0.736-0.597 1.333-1.333 1.333h-18.667c-0.736 0-1.333-0.597-1.333-1.333v-17.333h-2.667v-2.667h6.667v-4c0-0.736 0.597-1.333 1.333-1.333h10.667c0.736 0 1.333 0.597 1.333 1.333v4zM24 10.667h-16v16h16v-16zM12 14.667h2.667v8h-2.667v-8zM17.333 14.667h2.667v8h-2.667v-8zM12 5.333v2.667h8v-2.667h-8z"></path>
</svg>
