<!-- Generated by IcoMoon.io -->
<svg version="1.1" xmlns="http://www.w3.org/2000/svg" width="32" height="32" viewBox="0 0 32 32">
<title>search</title>
<path d="M24.041 22.156l5.71 5.71-1.886 1.886-5.71-5.71c-2.053 1.643-4.657 2.625-7.489 2.625-6.624 0-12-5.376-12-12s5.376-12 12-12c6.624 0 12 5.376 12 12 0 2.832-0.983 5.436-2.625 7.489zM21.366 21.166c1.63-1.68 2.634-3.972 2.634-6.5 0-5.157-4.177-9.333-9.333-9.333s-9.333 4.177-9.333 9.333c0 5.157 4.177 9.333 9.333 9.333 2.527 0 4.819-1.003 6.5-2.634l0.2-0.2z"></path>
</svg>
